<svg xmlns="http://www.w3.org/2000/svg" xmlns:xlink="http://www.w3.org/1999/xlink" width="820" height="280"><g transform="translate(-320 -260)"><path d="M0 0h1323.2v1870.4H0z" fill="#fff"/><path d="M340 400h160v120H340z" stroke="#000" stroke-width="2" fill="#fff"/><use xlink:href="#a" transform="matrix(1,0,0,1,345,405) translate(0 16.7080078125)"/><use xlink:href="#b" transform="matrix(1,0,0,1,345,405) translate(43.8046875 16.7080078125)"/><path d="M380 440h120v80H380z" stroke="#000" stroke-width="2" fill="#fff"/><use xlink:href="#c" transform="matrix(1,0,0,1,385,445) translate(0 16.7080078125)"/><path d="M420 473.4h80V520h-80z" stroke="#000" stroke-width="2" fill="#fff"/><use xlink:href="#d" transform="matrix(1,0,0,1,425,478.40000000000003) translate(3.8069661458333357 22.346571180555557)"/><use xlink:href="#e" transform="matrix(1,0,0,1,425,478.40000000000003) translate(40.417209201388886 22.346571180555557)"/><path d="M540 400h160v120H540z" stroke="#000" stroke-width="2" fill="#fff"/><use xlink:href="#a" transform="matrix(1,0,0,1,545,405) translate(0 16.7080078125)"/><use xlink:href="#b" transform="matrix(1,0,0,1,545,405) translate(43.8046875 16.7080078125)"/><path d="M600 473h100v47H600z" stroke="#000" stroke-width="2" fill="#fff"/><use xlink:href="#f" transform="matrix(1,0,0,1,605,478) translate(6.43663194444445 22.346571180555557)"/><use xlink:href="#g" transform="matrix(1,0,0,1,605,478) translate(63.136935763888886 22.346571180555557)"/><use xlink:href="#h" transform="matrix(1,0,0,1,605,478) translate(76.74370659722223 22.346571180555557)"/><path d="M420.04 312.5v38.75H420V390" stroke="#000" stroke-width="2" fill="none"/><path d="M420 390l-4.64-14.27h9.28z" stroke="#000" stroke-width="2"/><path d="M620.53 312.5V390" stroke="#000" stroke-width="2" fill="none"/><path d="M620.53 390l-4.63-14.27h9.27z" stroke="#000" stroke-width="2"/><path d="M818.3 312.5v80" stroke="#000" stroke-width="2" fill="none"/><path d="M818.3 392.5l-4.63-14.27h9.27z" stroke="#000" stroke-width="2"/><path d="M740 400h160v120H740z" stroke="#000" stroke-width="2" fill="#fff"/><use xlink:href="#a" transform="matrix(1,0,0,1,745,405) translate(0 16.7080078125)"/><use xlink:href="#b" transform="matrix(1,0,0,1,745,405) translate(43.8046875 16.7080078125)"/><path d="M800 473h100v47H800z" stroke="#000" stroke-width="2" fill="#fff"/><g><use xlink:href="#i" transform="matrix(1,0,0,1,805,478) translate(29.34516059027778 22.346571180555557)"/></g><path d="M340 310h610" stroke="#000" stroke-width="2" fill="none"/><path d="M950 310l-14.27 4.64v-9.28z" stroke="#000" stroke-width="2"/><path d="M960 280h160v60H960z" stroke="#000" stroke-width="2" fill="#fff"/><g><use xlink:href="#j" transform="matrix(1,0,0,1,965,285) translate(9.3984375 20.7548828125)"/><use xlink:href="#k" transform="matrix(1,0,0,1,965,285) translate(69.2080078125 20.7548828125)"/><use xlink:href="#l" transform="matrix(1,0,0,1,965,285) translate(15.52880859375 41.7080078125)"/><use xlink:href="#m" transform="matrix(1,0,0,1,965,285) translate(73.86181640625 41.7080078125)"/><use xlink:href="#n" transform="matrix(1,0,0,1,965,285) translate(103.87646484375 41.7080078125)"/></g><defs><path d="M307-86c126 7 215-13 215-137v-1137c-117 7-264-23-322 50-39 48-42 130-53 206H41l10-358h1153l10 358h-106c-10-135-29-256-180-256H729v1127c-5 128 84 155 215 147V0H307v-86" id="o"/><path d="M674-1376c-119-7-195 23-195 139v1135h404c178-1 180-179 200-338h107L1176 0H78v-86c122 7 194-27 194-147v-996c4-120-72-154-194-147v-86h596v86" id="p"/><path d="M1649-233c-4 120 72 154 194 147V0h-545v-86c102 5 154-32 154-129v-1094L983 0H872L397-1305v1072c-4 108 46 153 154 147V0H78v-86c117 6 194-21 194-137v-1014c3-115-76-146-194-139v-86h467L969-291l420-1171h454v86c-122-7-194 27-194 147v996" id="q"/><g id="a"><use transform="matrix(0.0087890625,0,0,0.0087890625,0,0)" xlink:href="#o"/><use transform="matrix(0.0087890625,0,0,0.0087890625,11.0302734375,0)" xlink:href="#p"/><use transform="matrix(0.0087890625,0,0,0.0087890625,22.2451171875,0)" xlink:href="#q"/></g><path d="M582-1376c-110-11-194 23-165 133 93 347 204 685 288 1042 85-436 219-833 327-1247h148c114 414 249 815 344 1247 74-363 203-697 282-1053 24-107-68-129-180-122v-86h500v86c-89-7-140 16-165 77-9 21-20 48-30 82L1585 0h-184l-334-1147L754 0H565L190-1268c-20-78-67-116-172-108v-86h564v86" id="r"/><path d="M434-223C430-95 529-79 659-86V0H68v-86c112 4 174-35 174-147v-639c2-108-66-143-174-140v-86h315l39 203h10c50-120 106-223 281-223 151 0 257 68 211 208-21 64-90 87-181 87-2-101-16-160-108-160-128 0-157 140-183 255-33 148-12 333-18 505" id="s"/><path d="M467-106c176 0 267-107 272-285v-166c-189 6-378 9-423 154-10 31-15 66-15 106 0 123 47 191 166 191zm272-535c5-199 13-375-190-375-142 0-190 83-187 223-106-2-174-27-174-129 0-169 191-191 369-196 250-7 375 104 375 354v531c-3 100 32 153 133 147V0H788l-32-176h-17C664-76 596 23 420 20 213 16 102-97 102-307c0-109 41-186 116-242 100-75 325-89 521-92" id="t"/><path d="M946-553c0-230-32-430-254-434-242-4-278 193-278 436s40 440 280 440c221 0 252-212 252-442zm-219-565c321 0 418 237 418 567 0 331-96 571-418 571-163 0-254-75-313-180h-8c7 140 10 280 8 428-2 108 66 142 174 138v86H37v-86c118 6 184-32 184-148V-872c3-116-76-146-194-140v-86h358l21 185h8c57-116 142-205 313-205" id="u"/><path d="M786-645c-4-191-36-363-223-363-76 0-134 30-175 92s-66 152-73 271h471zm123 393c43 21 51 90 17 136C862-29 744 20 588 20c-331 0-471-225-475-561-4-348 134-577 454-577 327 0 443 231 426 583H311c7 242 67 426 305 426 140 0 234-60 293-143" id="v"/><g id="b"><use transform="matrix(0.0087890625,0,0,0.0087890625,0,0)" xlink:href="#r"/><use transform="matrix(0.0087890625,0,0,0.0087890625,18.3076171875,0)" xlink:href="#s"/><use transform="matrix(0.0087890625,0,0,0.0087890625,26.7890625,0)" xlink:href="#t"/><use transform="matrix(0.0087890625,0,0,0.0087890625,36.9228515625,0)" xlink:href="#u"/><use transform="matrix(0.0087890625,0,0,0.0087890625,47.970703125,0)" xlink:href="#u"/><use transform="matrix(0.0087890625,0,0,0.0087890625,59.0185546875,0)" xlink:href="#v"/><use transform="matrix(0.0087890625,0,0,0.0087890625,68.6513671875,0)" xlink:href="#s"/></g><path d="M479-233c-3 120 73 154 195 147V0H78v-86c122 7 194-27 194-147v-996c4-120-72-154-194-147v-86h596v86c-122-7-195 27-195 147v996" id="w"/><path d="M1010-391c0 288-209 411-504 411-227 0-400-72-408-288-3-85 58-140 148-138 13 184 83 323 276 326 176 3 296-86 293-258-4-208-164-249-317-319-197-90-377-181-377-455 0-256 189-371 448-371 165 0 292 46 357 143 39 57 33 148-18 186-30 22-68 34-117 34-4-156-72-260-230-260-155 0-250 80-250 233 0 217 160 262 318 332 152 68 291 135 355 283 17 42 26 88 26 141" id="x"/><g id="c"><use transform="matrix(0.0087890625,0,0,0.0087890625,0,0)" xlink:href="#w"/><use transform="matrix(0.0087890625,0,0,0.0087890625,6.609375,0)" xlink:href="#x"/><use transform="matrix(0.0087890625,0,0,0.0087890625,16.400390625,0)" xlink:href="#x"/></g><path d="M115-735c0-455 195-750 647-750 335 0 516 182 599 443 56 178 56 438 0 617-83 263-265 445-601 445-453 0-645-301-645-755zm647-639c-345 0-420 288-420 641S416-90 760-90s416-291 416-643c0-351-70-641-414-641" id="y"/><path d="M727-1118c321 0 418 237 418 567 0 331-96 571-418 571-163 0-254-75-313-180h-13L365 0H37v-86c117 6 184-31 184-147v-1098c2-112-70-144-184-139v-86h377c-1 217 4 437-8 643h8c57-116 142-205 313-205zm219 565c0-230-32-430-254-434-242-4-278 193-278 436s40 440 280 440c221 0 252-212 252-442" id="z"/><path d="M221-872c2-108-66-143-174-140v-86h367V16c2 313-123 488-439 476v-97c213 5 246-165 246-377v-890zm88-431c-79 0-116-45-116-127 0-81 36-126 116-126s117 45 117 126-38 127-117 127" id="A"/><path d="M893-256c39 28 47 103 13 150C845-22 730 20 580 20c-332 0-467-220-467-563 0-349 119-575 456-575 140 0 259 39 325 116 44 51 42 161-14 193-31 18-76 29-137 29-1-134-38-239-174-236-232 6-258 224-258 471 0 264 65 427 310 432 127 2 227-62 272-143" id="B"/><path d="M387-291c-2 124 47 200 156 203 51 1 88-6 131-14v90C626 8 560 18 492 20 278 25 195-83 195-297v-684H39v-82c170-8 224-133 254-287h94v252h268v117H387v690" id="C"/><g id="d"><use transform="matrix(0.005425347222222222,0,0,0.005425347222222222,0,0)" xlink:href="#y"/><use transform="matrix(0.005425347222222222,0,0,0.005425347222222222,8.246527777777777,0)" xlink:href="#z"/><use transform="matrix(0.005425347222222222,0,0,0.005425347222222222,15.06618923611111,0)" xlink:href="#A"/><use transform="matrix(0.005425347222222222,0,0,0.005425347222222222,18.397352430555554,0)" xlink:href="#v"/><use transform="matrix(0.005425347222222222,0,0,0.005425347222222222,24.343532986111104,0)" xlink:href="#B"/><use transform="matrix(0.005425347222222222,0,0,0.005425347222222222,29.812282986111104,0)" xlink:href="#C"/></g><path d="M1141-289c47 27 51 110 13 159C1076-28 927 20 739 20c-439 0-622-310-622-753 0-346 130-585 372-695 199-90 579-71 673 84 39 64 27 161-25 196-32 21-74 38-127 38-5-158-78-264-240-264-349 0-426 285-426 641 0 266 62 478 232 573 54 30 119 45 194 45 183 1 293-72 371-174" id="D"/><path d="M594-1118c338 0 472 222 475 567 2 360-143 571-481 571S115-205 113-551c-2-359 142-567 481-567zm-4 108c-241 0-279 212-279 459 0 249 39 465 281 465s278-216 278-465c0-248-38-459-280-459" id="E"/><path d="M844-1331c2-112-71-145-185-139v-86h377v1331c-2 112 71 145 185 139V0H874l-22-184h-8C786-68 701 20 530 20c-321 0-417-237-417-567 0-331 95-571 417-571 163 0 254 76 314 180h12c-10-128-14-255-12-393zM563-987c-219 0-252 212-252 442 0 145 20 254 59 326s104 108 195 108c242 2 279-192 279-436s-41-440-281-440" id="F"/><g id="e"><use transform="matrix(0.005425347222222222,0,0,0.005425347222222222,0,0)" xlink:href="#D"/><use transform="matrix(0.005425347222222222,0,0,0.005425347222222222,6.597222222222222,0)" xlink:href="#E"/><use transform="matrix(0.005425347222222222,0,0,0.005425347222222222,13.00998263888889,0)" xlink:href="#F"/><use transform="matrix(0.005425347222222222,0,0,0.005425347222222222,19.82964409722222,0)" xlink:href="#v"/></g><path d="M322-226C292-111 376-75 500-86V0H0v-86c136 16 160-66 195-160l454-1216h160l463 1267c24 75 65 118 172 109V0H881v-86c113 10 195-27 165-133-27-93-63-180-94-270H414c-30 88-68 171-92 263zm593-366c-76-225-168-445-229-682-56 246-156 455-233 682h462" id="G"/><path d="M414-233c-4 120 72 154 194 147V0H27v-86c122 7 194-28 194-147v-1098c3-115-76-146-194-139v-86h387v1323" id="H"/><path d="M956-1161c125-12 164 158 62 205-14 6-30 8-49 8 9-84-106-83-156-45 48 62 81 134 80 248-2 265-188 381-475 346-48 26-98 54-99 125-1 68 58 77 127 77h232c215 1 338 97 338 306 0 294-237 379-543 383-249 3-426-81-426-299C47 28 162-41 303-70c-62-29-113-79-113-168 0-105 57-142 134-192-112-50-185-152-185-309 0-249 134-379 385-379 97 0 179 25 234 67 49-50 103-100 198-110zM438-14c-139-3-225 52-225 194 0 158 102 212 264 211 212-1 363-46 371-248C856-58 624-10 438-14zm78-1004c-150 0-184 109-184 273 0 159 39 250 186 253 149 3 184-105 182-256-2-165-33-270-184-270" id="I"/><path d="M434-233c-3 120 73 154 195 147V0H47v-86c118 6 195-21 195-137v-649c2-108-66-143-174-140v-86h366v865zM330-1303c-79 0-117-45-117-127s37-126 117-126c79 0 116 46 116 126 0 81-37 127-116 127" id="J"/><path d="M414-223c-3 108 66 141 174 137V0H37v-86c117 6 184-31 184-147v-1098c2-112-70-144-184-139v-86h377c-3 208 7 429-8 624h10c61-124 162-186 301-186 253 1 362 144 362 401v484c-3 110 54 152 164 147V0H887v-707c0-170-55-283-225-280-186 3-248 143-248 332v432" id="K"/><path d="M434-223c-3 108 66 141 174 137V0H57v-86c121 8 185-28 185-147v-639c3-106-58-144-164-140v-86h321l27 166h10c60-112 141-188 309-186 158 2 252 69 297 186h17c61-114 150-188 321-186 240 3 333 155 334 401v484c-3 110 54 152 164 147V0h-356v-707c0-166-49-282-215-280-172 2-228 132-228 305v449c-3 110 54 152 164 147V0H887v-707c0-166-49-282-215-280-182 3-238 148-238 332v432" id="L"/><g id="f"><use transform="matrix(0.005425347222222222,0,0,0.005425347222222222,0,0)" xlink:href="#G"/><use transform="matrix(0.005425347222222222,0,0,0.005425347222222222,7.834201388888888,0)" xlink:href="#H"/><use transform="matrix(0.005425347222222222,0,0,0.005425347222222222,11.279296875,0)" xlink:href="#I"/><use transform="matrix(0.005425347222222222,0,0,0.005425347222222222,17.149522569444443,0)" xlink:href="#E"/><use transform="matrix(0.005425347222222222,0,0,0.005425347222222222,23.562282986111104,0)" xlink:href="#s"/><use transform="matrix(0.005425347222222222,0,0,0.005425347222222222,28.79774305555555,0)" xlink:href="#J"/><use transform="matrix(0.005425347222222222,0,0,0.005425347222222222,32.35134548611111,0)" xlink:href="#C"/><use transform="matrix(0.005425347222222222,0,0,0.005425347222222222,36.26302083333333,0)" xlink:href="#K"/><use transform="matrix(0.005425347222222222,0,0,0.005425347222222222,43.315972222222214,0)" xlink:href="#L"/></g><path d="M434-223c-3 108 66 141 174 137V0H57v-86c118 6 185-31 185-147v-639c2-108-66-143-174-140v-86h331l27 166h10c63-113 148-188 320-186 244 3 343 152 344 401v484c-4 110 54 152 164 147V0H907v-707c0-170-55-282-225-280-187 3-248 145-248 332v432" id="M"/><g id="g"><use transform="matrix(0.005425347222222222,0,0,0.005425347222222222,0,0)" xlink:href="#J"/><use transform="matrix(0.005425347222222222,0,0,0.005425347222222222,3.5536024305555554,0)" xlink:href="#M"/></g><use transform="matrix(0.005425347222222222,0,0,0.005425347222222222,0,0)" xlink:href="#D" id="h"/><path d="M1047-1188c37-106 8-202-117-188h-47v-86h499v86c-135-16-160 62-194 159L764 0H614L172-1268c-22-75-67-117-172-108v-86h563v86c-110-10-197 24-165 133C500-894 642-571 727-201c78-350 208-663 320-987" id="N"/><path d="M1352-223c-3 116 77 143 194 137V0H950v-86c123 7 195-27 195-147v-480H479v480c-3 120 73 154 195 147V0H78v-86c122 7 194-27 194-147v-1004c3-115-76-146-194-139v-86h596v86c-122-7-195 27-195 147v414h666v-414c3-120-72-154-195-147v-86h596v86c-122-7-194 27-194 147v1006" id="O"/><path d="M705-1462c450 9 667 274 667 729S1160 0 705 0H78v-86c122 7 194-27 194-147v-1004c3-115-76-146-194-139v-86h627zm440 729c2-374-134-623-486-627H479v1256h178c362-7 486-260 488-629" id="P"/><g id="i"><use transform="matrix(0.005425347222222222,0,0,0.005425347222222222,0,0)" xlink:href="#N"/><use transform="matrix(0.005425347222222222,0,0,0.005425347222222222,7.497829861111111,0)" xlink:href="#O"/><use transform="matrix(0.005425347222222222,0,0,0.005425347222222222,16.30859375,0)" xlink:href="#P"/><use transform="matrix(0.005425347222222222,0,0,0.005425347222222222,24.38693576388889,0)" xlink:href="#p"/></g><path d="M1505-1376c-122-7-194 27-194 147V0h-146L397-1180v947c-3 120 73 154 195 147V0H78v-86c122 7 194-27 194-147v-1004c3-115-76-146-194-139v-86h375l733 1132v-907c3-116-76-146-195-139v-86h514v86" id="Q"/><path d="M886-871c30-101-37-149-145-141v-86h439v86c-127-12-147 70-181 160L676 0H489L160-903c-24-68-57-114-152-109v-86h512v86c-124-19-174 64-133 174 84 228 172 444 229 695h7c82-248 190-477 263-728" id="R"/><g id="j"><use transform="matrix(0.0087890625,0,0,0.0087890625,0,0)" xlink:href="#Q"/><use transform="matrix(0.0087890625,0,0,0.0087890625,13.5615234375,0)" xlink:href="#t"/><use transform="matrix(0.0087890625,0,0,0.0087890625,23.51953125,0)" xlink:href="#C"/><use transform="matrix(0.0087890625,0,0,0.0087890625,29.8564453125,0)" xlink:href="#J"/><use transform="matrix(0.0087890625,0,0,0.0087890625,35.2529296875,0)" xlink:href="#R"/><use transform="matrix(0.0087890625,0,0,0.0087890625,45.5009765625,0)" xlink:href="#v"/></g><path d="M868-871c27-98-34-147-137-141v-86h426v86c-114-4-130 76-162 160C865-510 751-153 616 182c-65 163-156 280-360 302-50 6-113 8-178 8v-97c285-2 394-182 461-403L160-903c-28-65-56-114-152-109v-86h492v86c-114-14-152 77-113 174 88 217 187 419 248 662h6c62-238 163-461 227-695" id="S"/><path d="M834-301C834-70 665 20 430 20 250 20 92-26 92-197c0-88 47-135 129-141 1 157 63 257 221 260 156 3 257-97 214-252-47-85-142-109-240-157-153-75-310-122-310-340 0-212 169-289 386-289 130 0 232 36 280 116 31 53 24 126-20 162-26 22-62 33-109 33 0-130-49-217-176-217-120 1-195 48-195 164 0 149 143 163 254 217 154 74 308 124 308 340" id="T"/><g id="k"><use transform="matrix(0.0087890625,0,0,0.0087890625,0,0)" xlink:href="#x"/><use transform="matrix(0.0087890625,0,0,0.0087890625,9.4306640625,0)" xlink:href="#S"/><use transform="matrix(0.0087890625,0,0,0.0087890625,19.423828125,0)" xlink:href="#T"/><use transform="matrix(0.0087890625,0,0,0.0087890625,27.544921875,0)" xlink:href="#C"/><use transform="matrix(0.0087890625,0,0,0.0087890625,33.7060546875,0)" xlink:href="#v"/><use transform="matrix(0.0087890625,0,0,0.0087890625,43.3388671875,0)" xlink:href="#L"/><use transform="matrix(0.0087890625,0,0,0.0087890625,60.345703125,0)" xlink:href="#D"/></g><g id="l"><use transform="matrix(0.0087890625,0,0,0.0087890625,0,0)" xlink:href="#L"/><use transform="matrix(0.0087890625,0,0,0.0087890625,17.0068359375,0)" xlink:href="#E"/><use transform="matrix(0.0087890625,0,0,0.0087890625,27.3955078125,0)" xlink:href="#F"/><use transform="matrix(0.0087890625,0,0,0.0087890625,38.443359375,0)" xlink:href="#v"/><use transform="matrix(0.0087890625,0,0,0.0087890625,48.076171875,0)" xlink:href="#H"/></g><path d="M442-233C435-92 546-78 688-86V0H55v-86c123 7 195-27 195-147v-768H63v-97h187v-102c4-240 124-377 362-377 124 0 225 14 272 85 33 50 8 123-32 144-31 17-72 29-121 29-2-96-37-164-135-164-176 0-152 207-154 385h289v97H442v768" id="U"/><g id="m"><use transform="matrix(0.0087890625,0,0,0.0087890625,0,0)" xlink:href="#U"/><use transform="matrix(0.0087890625,0,0,0.0087890625,6.46875,0)" xlink:href="#E"/><use transform="matrix(0.0087890625,0,0,0.0087890625,16.857421875,0)" xlink:href="#s"/></g><path d="M887-864c2-112-62-153-174-148v-86h366v875c-3 108 66 141 174 137V0H928l-27-166h-10C829-49 733 21 559 20c-245-1-338-153-338-401v-491c2-108-66-143-174-140v-86h367v707c-1 168 46 283 215 280 191-4 258-139 258-331v-422" id="V"/><g id="n"><use transform="matrix(0.0087890625,0,0,0.0087890625,0,0)" xlink:href="#z"/><use transform="matrix(0.0087890625,0,0,0.0087890625,11.0478515625,0)" xlink:href="#V"/><use transform="matrix(0.0087890625,0,0,0.0087890625,22.4736328125,0)" xlink:href="#T"/></g></defs></g></svg>